# xmcd CD database file
#
# Track frame offsets:
#	150
#	24975
#	42757
#	61342
#	81440
#	102077
#	112885
#	127665
#	143112
#	155127
#	167965
#	188135
#	200622
#	218962
#	245575
#	266115
#
# Disc length: 3798 seconds
#
# Revision: 2
# Processed by: cddbd v1.5.2PL0 Copyright (c) Steve Scherf et al.
# Submitted via: CDex 1.70beta2
#
DISCID=e20ed410
DTITLE=Wolfgang Ambros - Selected Live - CD2
DYEAR=1986
DGENRE=Austro Pop
TTITLE0=Der Letzte Tanz
TTITLE1=Geplante Zukunft
TTITLE2=Belize
TTITLE3=Heite Drah I Mi Ham
TTITLE4=Der Sinn Des Lebens
TTITLE5=Corrina, Corrina
TTITLE6=Einsamkeit
TTITLE7=Bettina
TTITLE8=Hoffnungslos
TTITLE9=Baba and Foi Ned
TTITLE10=I Bin Nur A Pompfinewra
TTITLE11=Lokalverbot
TTITLE12=Lokalverbot
TTITLE13=Mama
TTITLE14=Es Lebe Der Zentralfriedhof
TTITLE15=Weiﬂ Wie Schnee
EXTD=YEAR: 1986
EXTT0=
EXTT1=
EXTT2=
EXTT3=
EXTT4=
EXTT5=
EXTT6=
EXTT7=
EXTT8=
EXTT9=
EXTT10=
EXTT11=
EXTT12=
EXTT13=
EXTT14=
EXTT15=
PLAYORDER=
